<svg id="Layer_1" data-name="Layer 1" xmlns="http://www.w3.org/2000/svg" viewBox="0 0 80 80"><defs><style>.cls-1{fill:#fff;}.cls-2,.cls-5{fill:#29abe2;}.cls-3,.cls-6{fill:#2b93b2;}.cls-4{fill:none;stroke-width:3px;}.cls-4,.cls-5,.cls-6{stroke:#29abe2;stroke-miterlimit:10;}.cls-5,.cls-6{stroke-width:2px;}</style></defs><title>pinoytechnolgy</title><circle class="cls-1" cx="141" cy="142" r="39" transform="translate(-144.61 -37.23) rotate(-22.5)"/><path class="cls-2" d="M141,104a38,38,0,1,1-38,38,38,38,0,0,1,38-38m0-2a40,40,0,1,0,40,40,40,40,0,0,0-40-40Z" transform="translate(-101 -102)"/><path class="cls-3" d="M145.62,136.39h20.79v3.83H145.62Zm8.33,2.35h4.13v26.32H154Z" transform="translate(-101 -102)"/><path class="cls-3" d="M118.17,136.33h5.28v26.49h-5.28ZM120.89,149h12a7.45,7.45,0,0,0,3-.57,4.52,4.52,0,0,0,2-1.6,4.34,4.34,0,0,0,0-4.79,4.61,4.61,0,0,0-2-1.61,7.28,7.28,0,0,0-3-.58h-12v-3.53h11.85a16,16,0,0,1,5.93,1,9,9,0,0,1,4,2.85,7.14,7.14,0,0,1,0,8.52,9,9,0,0,1-4,2.83,16.16,16.16,0,0,1-5.93,1H120.89Z" transform="translate(-101 -102)"/><line class="cls-4" x1="10.18" y1="29.18" x2="27.82" y2="16.82"/><line class="cls-4" x1="25.6" y1="26.64" x2="37.4" y2="18.36"/><circle class="cls-5" cx="31.5" cy="14.5" r="1.5"/><circle class="cls-6" cx="42.5" cy="14.5" r="1.5"/></svg>